<?xml version="1.0" encoding="UTF-8"?>
<svg width="24px" height="24px" viewBox="0 0 24 24" version="1.1" xmlns="http://www.w3.org/2000/svg">
    <g stroke="none" stroke-width="1" fill="none" fill-rule="evenodd">
        <path d="M19,3 L5,3 C3.9,3 3,3.9 3,5 L3,19 C3,20.1 3.9,21 5,21 L19,21 C20.1,21 21,20.1 21,19 L21,5 C21,3.9 20.1,3 19,3 Z" fill="#FF0000" fill-rule="nonzero"/>
        <path d="M14.5,12.5 L12,12.5 L12,15 L14.5,15 C15.3,15 16,14.3 16,13.5 C16,12.7 15.3,12 14.5,12 L14.5,12.5 Z" fill="#FFFFFF"/>
        <path d="M12,7 L14.5,7 C15.3,7 16,7.7 16,8.5 C16,9.3 15.3,10 14.5,10 L12,10 L12,7 Z" fill="#FFFFFF"/>
        <path d="M14.5,5 L10,5 L10,17 L14.5,17 C16.4,17 18,15.4 18,13.5 C18,12.5 17.5,11.5 16.6,10.9 C17.5,10.3 18,9.3 18,8.5 C18,6.6 16.4,5 14.5,5 Z" fill="#FFFFFF"/>
        <path d="M7,5 L9,5 L9,17 L7,17 L7,5 Z" fill="#FFFFFF"/>
    </g>
</svg> 